<svg xmlns="http://www.w3.org/2000/svg" xmlns:xlink="http://www.w3.org/1999/xlink" width="300" height="300" viewBox="0 0 300 300">
  <defs>
    <style>
      .\34 9a0ca61-7c4a-4e1c-b822-f40a27eacba7 {
        isolation: isolate;
      }

      .\36 1d106f9-5d13-4b6d-9a53-a18077037a32 {
        opacity: 0.72;
        fill: url(#a9e6efc1-de12-41e1-b17d-44026abe9dd9);
      }

      .\36 1d106f9-5d13-4b6d-9a53-a18077037a32, .aa553009-1f8d-4915-be1c-0eadc6c24540 {
        mix-blend-mode: screen;
      }

      .\34 24f4f0f-18f3-42c9-bcb3-8d03e54eed77 {
        fill: url(#211a10de-6729-49fc-bc88-6514adad028c);
      }

      .\30 86cd2b7-125f-4bd6-9fc5-0cb1e21c549d {
        fill: url(#3c8d0b63-1b7a-4eb3-b3d4-e576f524ac10);
      }

      .\37 062a89b-417f-4e4e-a8ce-3e94455e7981 {
        opacity: 0.5;
        fill: url(#26ab1265-77bb-4934-98f6-0d14f94c96d6);
      }

      .\34 af46e84-31e3-4f0e-a031-700d60e4a10b {
        fill: #347700;
        opacity: 0.26;
      }

      .b73af224-de23-4667-b3f6-e0ef6ecfddc3 {
        fill: url(#a707b0ac-b078-4ae0-9df2-8b1b0dab928c);
      }

      .\32 ce8b09e-0a90-4b3b-aaf4-c031064e8cd4 {
        fill: url(#76aa94b9-d9f9-4b5a-8330-49e027ddc3a2);
      }

      .b086025b-5897-4a1c-a7f8-eb30aeff4fdb {
        fill: url(#92e08d58-2927-4527-84f0-a7759c608685);
      }

      .\35 6df6c87-7d2c-4fc9-a957-4b3b22422d50 {
        fill: #5f7501;
        opacity: 0.42;
      }

      .\34 a4a3aaf-ef55-4021-8912-f8cab9fe1fd1 {
        fill: url(#58659387-0300-46d4-99fa-48a6f3510010);
      }

      .\31 b9cb9d7-a71e-4b78-953f-e95a0d1c7db0 {
        fill: url(#b7c899c3-e12d-4fa7-abf8-264eabe92902);
      }

      .\36 3714c5e-e109-430e-a991-e6fd95746cc4 {
        fill: url(#518434d9-5996-407f-a9bb-179578da7559);
      }

      .\31 6cbd4c8-fd68-4da0-a166-f9f6699e954b {
        opacity: 0.32;
        fill: url(#9385068b-67b6-44ea-8a15-13f05bdd46e2);
      }

      .aa553009-1f8d-4915-be1c-0eadc6c24540 {
        fill: #fffb7b;
        opacity: 0.62;
      }

      .c6c51d44-2d86-4c69-8230-fc63dc99a773 {
        fill: #fff;
        opacity: 0.75;
      }
    </style>
    <radialGradient id="a9e6efc1-de12-41e1-b17d-44026abe9dd9" cx="41.41" cy="124" r="2.71" gradientUnits="userSpaceOnUse">
      <stop offset="0.15" stop-color="#c775c7"/>
      <stop offset="1" stop-color="#ed6b80"/>
    </radialGradient>
    <linearGradient id="211a10de-6729-49fc-bc88-6514adad028c" x1="89.15" y1="464.98" x2="265.06" y2="205.05" gradientTransform="translate(263.48 -193.93) rotate(51.41)" gradientUnits="userSpaceOnUse">
      <stop offset="0" stop-color="#3d3b30"/>
      <stop offset="0.97" stop-color="#709c2e"/>
    </linearGradient>
    <radialGradient id="3c8d0b63-1b7a-4eb3-b3d4-e576f524ac10" cx="2643.54" cy="-7556.68" r="169.46" gradientTransform="translate(-7813.02 93.15) rotate(71.11)" gradientUnits="userSpaceOnUse">
      <stop offset="0" stop-color="#7cff1b"/>
      <stop offset="0.23" stop-color="#7afc1b"/>
      <stop offset="0.39" stop-color="#74f31b"/>
      <stop offset="0.53" stop-color="#6ae31b"/>
      <stop offset="0.66" stop-color="#5bcd1c"/>
      <stop offset="0.78" stop-color="#48b11c"/>
      <stop offset="0.89" stop-color="#328e1c"/>
      <stop offset="1" stop-color="#17661d"/>
      <stop offset="1" stop-color="#16641d"/>
    </radialGradient>
    <linearGradient id="26ab1265-77bb-4934-98f6-0d14f94c96d6" x1="191.03" y1="312.22" x2="11.53" y2="475.27" gradientTransform="translate(263.48 -193.93) rotate(51.41)" gradientUnits="userSpaceOnUse">
      <stop offset="0" stop-color="#61c921"/>
      <stop offset="0.97" stop-color="#4d3d0d"/>
    </linearGradient>
    <linearGradient id="a707b0ac-b078-4ae0-9df2-8b1b0dab928c" x1="148.54" y1="462.82" x2="254.71" y2="315.76" gradientTransform="translate(263.48 -193.93) rotate(51.41)" gradientUnits="userSpaceOnUse">
      <stop offset="0" stop-color="#7ae32e"/>
      <stop offset="0.97" stop-color="#d6ff42"/>
    </linearGradient>
    <linearGradient id="76aa94b9-d9f9-4b5a-8330-49e027ddc3a2" x1="103.83" y1="489.61" x2="263.94" y2="279.37" xlink:href="#a707b0ac-b078-4ae0-9df2-8b1b0dab928c"/>
    <linearGradient id="92e08d58-2927-4527-84f0-a7759c608685" x1="93.23" y1="368.42" x2="262.41" y2="167.55" xlink:href="#a707b0ac-b078-4ae0-9df2-8b1b0dab928c"/>
    <linearGradient id="58659387-0300-46d4-99fa-48a6f3510010" x1="83.97" y1="362.93" x2="235.95" y2="174.69" xlink:href="#a707b0ac-b078-4ae0-9df2-8b1b0dab928c"/>
    <linearGradient id="b7c899c3-e12d-4fa7-abf8-264eabe92902" x1="44.55" y1="444.34" x2="238.82" y2="250.06" xlink:href="#a707b0ac-b078-4ae0-9df2-8b1b0dab928c"/>
    <linearGradient id="518434d9-5996-407f-a9bb-179578da7559" x1="181.68" y1="236.38" x2="204.43" y2="145.21" xlink:href="#a707b0ac-b078-4ae0-9df2-8b1b0dab928c"/>
    <linearGradient id="9385068b-67b6-44ea-8a15-13f05bdd46e2" x1="199.51" y1="273.69" x2="134.15" y2="490.46" gradientTransform="translate(263.48 -193.93) rotate(51.41)" gradientUnits="userSpaceOnUse">
      <stop offset="0.01" stop-color="#3b9621"/>
      <stop offset="0.97" stop-color="#4d3d0d"/>
    </linearGradient>
  </defs>
  <title>yuan</title>
  <g class="49a0ca61-7c4a-4e1c-b822-f40a27eacba7">
    <g id="58acb1c7-70c6-4856-8b79-069f9f2cf5ae" data-name="图层 1">
      <path class="61d106f9-5d13-4b6d-9a53-a18077037a32" d="M37.57,124l7.67,0-7.67,0"/>
      <g>
        <path class="424f4f0f-18f3-42c9-bcb3-8d03e54eed77" d="M198.51,292.4a150,150,0,1,1,93.37-190.49A150,150,0,0,1,198.51,292.4Z"/>
        <path class="086cd2b7-125f-4bd6-9fc5-0cb1e21c549d" d="M196.45,286.38A143.63,143.63,0,1,1,285.85,104,143.63,143.63,0,0,1,196.45,286.38Z"/>
        <path class="7062a89b-417f-4e4e-a8ce-3e94455e7981" d="M49.7,142.23C56.15,69.12,105.42,28.1,143.9,6.95a143.67,143.67,0,0,0-13.83,285.82C81,271.62,42.88,219.75,49.7,142.23Z"/>
        <path class="4af46e84-31e3-4f0e-a031-700d60e4a10b" d="M39.1,227s-7-12.33-10.55-12-1.6,7.45,4.24,13.73S41.36,233.57,39.1,227Z"/>
        <path class="4af46e84-31e3-4f0e-a031-700d60e4a10b" d="M51.39,179.5c-.49-1.71.09-15.61-10.41-14.81S20.86,149.47,20.24,157,26.14,173,31.85,181.6,56.06,195.86,51.39,179.5Z"/>
        <path class="b73af224-de23-4667-b3f6-e0ef6ecfddc3" d="M68.56,262c-12.47-12.29-17.18-31.4-23.22-46.35S31.91,206,21.51,178.24A323.67,323.67,0,0,1,7.8,129.71a143.92,143.92,0,0,0-1.28,28.82c3.37,7.28,6.59,14,8.1,18.39,3.66,10.7,18.27,29.19,26.06,39.87,6.43,8.8-.09,27.38,18.05,44.68a146.37,146.37,0,0,0,12.67,9.27c.8.47,1.61.92,2.47,1.39a110.51,110.51,0,0,1,9.58,5.67,146.33,146.33,0,0,0,19.17,8.3C91.05,280.62,77.51,270.79,68.56,262Z"/>
        <path class="2ce8b09e-0a90-4b3b-aaf4-c031064e8cd4" d="M138.58,261.61c-26.52-14.88-65.8-62.86-72.66-77.67S38,128.47,30.43,115.7C25,106.55,22.07,94,20.83,87.59c-1.39,2.87-2.68,5.8-3.9,8.74,3.07,8.72,8.37,16.5,11.62,24.3,4,9.7,13.1,21.6,22.68,44.4s12.21,30.46,27.33,47.46S95.5,262,117,263.27s25,14.66,39.07,21.27c7.36,3.47,17.55,5.21,25.59,6,4.32-1,8.63-2.18,12.93-3.57C160.1,291.24,160.75,274,138.58,261.61Z"/>
        <path class="b086025b-5897-4a1c-a7f8-eb30aeff4fdb" d="M210.46,182.58c-47.09-26-57.54-51.63-63-44.69s-18.49-1.55-30.67-32.19S101.65,45.16,96,30.25a112.92,112.92,0,0,1-3.55-11.38c-1.1.48-2.19,1-3.27,1.48,4.6,13.83,10.43,33.21,13.23,53.22,4.63,33.22,16.24,55.64,29.29,69.16s20.52,4.2,38.65,22.73,66.89,44.48,95.75,40.21a80.11,80.11,0,0,0,18.59-5.35c.88-2.37,1.71-4.79,2.45-7.23C275.61,196.8,246.6,202.56,210.46,182.58Z"/>
        <path class="56df6c87-7d2c-4fc9-a957-4b3b22422d50" d="M287.12,134.19s-4-25-10.3-19-17.36-1.72-17.26,10.83.91,23.9,9.66,29.29S290.86,149.84,287.12,134.19Z"/>
        <path class="56df6c87-7d2c-4fc9-a957-4b3b22422d50" d="M255.46,123.53s1.07-17.65-7.05-23.78S228.77,112.64,228,123.11s7.86,19.33,13.35,22.55S253.15,143.45,255.46,123.53Z"/>
        <path class="56df6c87-7d2c-4fc9-a957-4b3b22422d50" d="M215.43,28.35s2.8,5-1.81,5.89-12.21-6.92-10.28-10.32S211.83,22.67,215.43,28.35Z"/>
        <path class="4af46e84-31e3-4f0e-a031-700d60e4a10b" d="M233.06,89.5s-6.65-7.73-8.85-3.53.09,9.28,2.28,12.51,3,6.24,7.42,2S236.14,93.19,233.06,89.5Z"/>
        <path class="4af46e84-31e3-4f0e-a031-700d60e4a10b" d="M201.9,41.69s-8.78-11.52-10.78-18.51c-1.47-5.22-2-8.31-5.71-11.87a142,142,0,0,0-32-4.44A62.32,62.32,0,0,0,146,9.17c-7.47,3-15.75,9.42-10.11,35.34s32.17,22,46.09,26.18S223.23,68.67,201.9,41.69Z"/>
        <path class="56df6c87-7d2c-4fc9-a957-4b3b22422d50" d="M214.07,84.31s-6.75-13.82-17.41-6.13-9.52,20.6-2.32,29.84,19.18,14.81,26.15,9.19,6.69-9.93,3.63-14.12S217,89.38,214.07,84.31Z"/>
        <path class="56df6c87-7d2c-4fc9-a957-4b3b22422d50" d="M223.64,133.51s-1.91-10.27-6.71-7.8-3.54,10.87,2.67,14.81S228.91,144.2,223.64,133.51Z"/>
        <path class="56df6c87-7d2c-4fc9-a957-4b3b22422d50" d="M180.33,76.5s-11-1.49-8.16,5.6,3.21,8.21,6.83,7S187.47,79.7,180.33,76.5Z"/>
        <path class="56df6c87-7d2c-4fc9-a957-4b3b22422d50" d="M130.23,18.51s-3.55-8.5-8.35-3.62-.63,17.08,4.2,16.06S133.39,23.92,130.23,18.51Z"/>
        <path class="4a4a3aaf-ef55-4021-8912-f8cab9fe1fd1" d="M169.31,130.79C118.05,83.7,111.34,31.45,113.59,21a17.08,17.08,0,0,1,7.68-11.23q-4.31.89-8.63,2.07c-15.35,28.06,6.51,69.23,22.57,95,17.26,27.78,65.7,72.75,112.26,80.12,24.51,3.91,37-1.74,43.27-7.95.88-4.27,1.55-8.6,2-13C279.9,191,241.72,197.33,169.31,130.79Z"/>
        <path class="56df6c87-7d2c-4fc9-a957-4b3b22422d50" d="M166,81.4s-6.29-10.79-10.92-7.27-17,9-8.55,20.42S175.57,111.18,166,81.4Z"/>
        <path class="4af46e84-31e3-4f0e-a031-700d60e4a10b" d="M181.22,118.31s-11.48-7.07-10.85.47,4.15,10.23,9.79,11.55S187.29,126.59,181.22,118.31Z"/>
        <path class="4af46e84-31e3-4f0e-a031-700d60e4a10b" d="M203,127s-4.09-2.46-6.21-1.11-1.89,5.84,2.18,6.39S204.77,130.32,203,127Z"/>
        <path class="4af46e84-31e3-4f0e-a031-700d60e4a10b" d="M259.89,166.52s-5.49-10.42-11.3-8.44-13.28,10.37-3,12S262.65,170.77,259.89,166.52Z"/>
        <path class="4af46e84-31e3-4f0e-a031-700d60e4a10b" d="M287.42,165.52s-.28-10.26-8.19-5,.26,8.35.26,8.35S287.64,170,287.42,165.52Z"/>
        <path class="4af46e84-31e3-4f0e-a031-700d60e4a10b" d="M88.85,47.75s-11-3.07-18.57,9.47,8.41,26.41,8.41,26.41,14.39,3.79,14.12-4.21S99.12,50.47,88.85,47.75Z"/>
        <path class="4af46e84-31e3-4f0e-a031-700d60e4a10b" d="M140.08,121.31s-14.54-11.29-10.92-.76S140.5,132.39,144,132.89,144.15,128.34,140.08,121.31Z"/>
        <path class="4af46e84-31e3-4f0e-a031-700d60e4a10b" d="M127.84,103.6s-7.62-7.52-6.56-1.12,2.42,8.72,6.28,8.51S128.69,106.12,127.84,103.6Z"/>
        <path class="56df6c87-7d2c-4fc9-a957-4b3b22422d50" d="M156.51,167s-9.12-13-19.51-9.93-18.41,13-3.36,25,23.6,17.4,36.14,11.53S164.83,177.68,156.51,167Z"/>
        <path class="4af46e84-31e3-4f0e-a031-700d60e4a10b" d="M190.72,186.49s-8.17-8.64-8.9-3.19,3.2,10.85,6.61,10.2S193.55,190.21,190.72,186.49Z"/>
        <path class="4af46e84-31e3-4f0e-a031-700d60e4a10b" d="M171.35,170.7s-5.81-6.75-6.43-1.3,2.34,4.71,6.16,7.12S178.58,178.7,171.35,170.7Z"/>
        <path class="1b9cb9d7-a71e-4b78-953f-e95a0d1c7db0" d="M266.46,222.75a107.38,107.38,0,0,0,10.61-5.38c.76-1.46,1.51-3,2.23-4.48-2.17,1.39-4.66,2.88-7.56,4.48-21,11.63-81.65,14.13-109.16-5s-44-34.88-55.73-65.2-22.69-35-40.72-55.2c-16-17.89-14.93-41.29-14.47-46.25-1.92,1.78-3.76,3.63-5.57,5.52,3,23,14.86,53.59,23.52,58.73,9.51,5.67,19.56,11.59,26.2,23.14s16.43,36.28,23.48,50.37,19.57,29.85,51,41S239.73,234.56,266.46,222.75Z"/>
        <path class="56df6c87-7d2c-4fc9-a957-4b3b22422d50" d="M100,88.58s-6.62-4.39-9.15,3.14,2.09,12,7.42,12.77S106.88,95.41,100,88.58Z"/>
        <path class="56df6c87-7d2c-4fc9-a957-4b3b22422d50" d="M81.16,88.89s-8.91-2.08-6.88,2.34,1.41,5.64,5.13,9S85.77,93.42,81.16,88.89Z"/>
        <path class="56df6c87-7d2c-4fc9-a957-4b3b22422d50" d="M207.13,213.55s-2.1-9.16-14.18-6.59-30.15-6.25-23.1,2.23S216.5,222.78,207.13,213.55Z"/>
        <path class="4af46e84-31e3-4f0e-a031-700d60e4a10b" d="M233.61,212.9s-9.87-14.81-20.76-13.77-4.1,8.37,1.89,14.87S240.09,222.46,233.61,212.9Z"/>
        <path class="56df6c87-7d2c-4fc9-a957-4b3b22422d50" d="M127.28,147.61s-1-9.25-12.63-19.73-13.51-5-7.8,8.54S126.14,166.2,127.28,147.61Z"/>
        <path class="56df6c87-7d2c-4fc9-a957-4b3b22422d50" d="M99.45,153s-8.64-25.24-19.12-29.23-12.59,21,2.54,36.39S103.41,164.56,99.45,153Z"/>
        <path class="4af46e84-31e3-4f0e-a031-700d60e4a10b" d="M110.15,178s-9.66-12.67-15.32-.07,3.71,16.7,10.27,18.43S115.62,190.12,110.15,178Z"/>
        <path class="4af46e84-31e3-4f0e-a031-700d60e4a10b" d="M85.82,173s-6.85-8.3-10.17-.53-1.9,12,3.1,12.94S93.43,179.72,85.82,173Z"/>
        <path class="56df6c87-7d2c-4fc9-a957-4b3b22422d50" d="M47.29,83.72s-4-21.26-10.88-16.24S26,91.67,29.52,103.77s20.57,7.61,26.53,7.55S55.78,100.78,47.29,83.72Z"/>
        <path class="63714c5e-e109-430e-a991-e6fd95746cc4" d="M273.08,96.63C259.83,100,258.19,92,243.36,81.9s-22.72-30.32-20.87-39.33C223.9,35.82,236.88,39,242,40.21c-3.18-2.68-6.48-5.17-9.87-7.54-6.82-.67-14.66-.19-17,4.48-4.26,8.66-1,26.93,9.63,40.33s15.51,7.61,25.94,19.22c8.26,9.22,28.27,14.38,33.72,3.35q-2.31-6.14-5.1-11.93C279.31,92,277.74,95.44,273.08,96.63Z"/>
        <path class="56df6c87-7d2c-4fc9-a957-4b3b22422d50" d="M139.92,66.73s-6.45-6.84-6.76.66,1.54,8.12,6.1,9.44S147.73,73.93,139.92,66.73Z"/>
        <path class="4af46e84-31e3-4f0e-a031-700d60e4a10b" d="M272.78,86.22s-6.16-18-15.11-14.14-8.56,7.45-1.86,13.78S276.91,94.68,272.78,86.22Z"/>
        <path class="56df6c87-7d2c-4fc9-a957-4b3b22422d50" d="M247.2,70.31S240,65,240,68.65s2.16,8.71,4.49,8.32S250.18,74.22,247.2,70.31Z"/>
        <path class="4af46e84-31e3-4f0e-a031-700d60e4a10b" d="M66.14,122s-7-8.17-12-1.16.59,10.92,4.7,12.15S71.27,129.24,66.14,122Z"/>
        <path class="4af46e84-31e3-4f0e-a031-700d60e4a10b" d="M156,228.67s-6.36-6.26-20.65-14.06-20-24.35-24.74-9,11.14,29.47,21.93,34.8S172.9,242.45,156,228.67Z"/>
        <path class="56df6c87-7d2c-4fc9-a957-4b3b22422d50" d="M243,260c.52-3.64-.16-8-2.54-13.16,0,0,.21-13.26-21.41-6.94s-23.81,6.05-36.75,11.53-11.23,19.7-3.58,25c7.2,5,14.43,10,26,6.88A143,143,0,0,0,243,260Z"/>
        <path class="56df6c87-7d2c-4fc9-a957-4b3b22422d50" d="M269,213.27s-7.14-6.88-13.47-2.06-16.46,1.63-8.46,6.36,16.58,1.79,16.58,1.79S274.32,217.05,269,213.27Z"/>
        <path class="4af46e84-31e3-4f0e-a031-700d60e4a10b" d="M167,248.2s-11.69-3.25-18.67,1.45.63,4.73,6.09,8.14,11.75-2.35,14.31-3.54S169.91,247.89,167,248.2Z"/>
        <path class="4af46e84-31e3-4f0e-a031-700d60e4a10b" d="M36.36,139.62s-13-16.71-15.79-11.45-1.65,18.4,2.42,20.65,6.24.83,13.17,1.76S41,143.62,36.36,139.62Z"/>
        <path class="4af46e84-31e3-4f0e-a031-700d60e4a10b" d="M40.32,154.1s-3.58-3.71-4.53-.74,1.63,5.73,3.49,6.39S42.64,157,40.32,154.1Z"/>
        <path class="4af46e84-31e3-4f0e-a031-700d60e4a10b" d="M135.85,274.38S123,265,119,272.34s3.24,6.71,12.08,12.44S147.1,285.75,135.85,274.38Z"/>
        <path class="4af46e84-31e3-4f0e-a031-700d60e4a10b" d="M169.87,274.26s-8.77-9.43-8.73-5.3.61,5.77,4.89,8.9S174.44,278.21,169.87,274.26Z"/>
        <path class="4af46e84-31e3-4f0e-a031-700d60e4a10b" d="M193.11,237.31s-8.18-6.39-16.41-3.56-4.46,11.17.64,12.63S200.29,239.46,193.11,237.31Z"/>
        <path class="4af46e84-31e3-4f0e-a031-700d60e4a10b" d="M95.65,259.15s-8.8-35.17-21-33.3-12.94,15.94-7.24,23.2S98.91,268.62,95.65,259.15Z"/>
        <path class="4af46e84-31e3-4f0e-a031-700d60e4a10b" d="M99.74,269.71s-15.21-8.12-14.34-1.53,3.25,8.12,9.87,8.59S103.35,272.16,99.74,269.71Z"/>
        <path class="4af46e84-31e3-4f0e-a031-700d60e4a10b" d="M55.81,199.17s-11-5.43-11.57-.2,4.48,7.67,6.56,8.37S64.84,208,55.81,199.17Z"/>
        <path class="16cbd4c8-fd68-4da0-a166-f9f6699e954b" d="M14.06,197a143.73,143.73,0,0,0,124,96.68C124.62,288.5,112.8,278.87,104,263c-44.56-80.24,17.78-92.69,55.91-151.73,27-41.78,15.76-83.18,6.59-103.45A143.67,143.67,0,0,0,14.06,197Z"/>
        <path class="aa553009-1f8d-4915-be1c-0eadc6c24540" d="M285.49,123.08S273.1,69,243.78,54.65,242.4,94.43,222.45,143,159.28,213.7,171.1,248.28s51.07,22.51,76.69,4.27S296.58,167.38,285.49,123.08Z"/>
        <path class="c6c51d44-2d86-4c69-8230-fc63dc99a773" d="M283.25,133.66S280,101.4,264.47,109.91s-6,44.63.16,58.49S289.62,175.09,283.25,133.66Z"/>
        <path class="c6c51d44-2d86-4c69-8230-fc63dc99a773" d="M276.63,183.81s-4.53-8.05-10-2.27-8.76,20-2,26.26S280.88,198.33,276.63,183.81Z"/>
      </g>
    </g>
  </g>
</svg>
